<svg xmlns="http://www.w3.org/2000/svg" width="31.5" height="31.5" viewBox="0 0 31.5 31.5">
  <path id="Icon_awesome-align-center" data-name="Icon awesome-align-center" d="M30.375,11.25H1.125A1.125,1.125,0,0,0,0,12.375v2.25A1.125,1.125,0,0,0,1.125,15.75h29.25A1.125,1.125,0,0,0,31.5,14.625v-2.25A1.125,1.125,0,0,0,30.375,11.25Zm0,18H1.125A1.125,1.125,0,0,0,0,30.375v2.25A1.125,1.125,0,0,0,1.125,33.75h29.25A1.125,1.125,0,0,0,31.5,32.625v-2.25A1.125,1.125,0,0,0,30.375,29.25ZM7.6,6.75H23.9a.85.85,0,0,0,.85-.851V3.1a.85.85,0,0,0-.85-.85H7.6a.85.85,0,0,0-.851.85V5.9A.851.851,0,0,0,7.6,6.75Zm16.3,18a.85.85,0,0,0,.85-.851V21.1a.85.85,0,0,0-.85-.85H7.6a.85.85,0,0,0-.851.85v2.8a.851.851,0,0,0,.851.851Z" transform="translate(0 -2.25)"/>
</svg>
