<svg xmlns="http://www.w3.org/2000/svg" width="31.5" height="31.5" viewBox="0 0 31.5 31.5">
  <path id="Icon_awesome-align-justify" data-name="Icon awesome-align-justify" d="M30.375,29.25H1.125A1.125,1.125,0,0,0,0,30.375v2.25A1.125,1.125,0,0,0,1.125,33.75h29.25A1.125,1.125,0,0,0,31.5,32.625v-2.25A1.125,1.125,0,0,0,30.375,29.25Zm0-9H1.125A1.125,1.125,0,0,0,0,21.375v2.25A1.125,1.125,0,0,0,1.125,24.75h29.25A1.125,1.125,0,0,0,31.5,23.625v-2.25A1.125,1.125,0,0,0,30.375,20.25Zm0-9H1.125A1.125,1.125,0,0,0,0,12.375v2.25A1.125,1.125,0,0,0,1.125,15.75h29.25A1.125,1.125,0,0,0,31.5,14.625v-2.25A1.125,1.125,0,0,0,30.375,11.25Zm0-9H1.125A1.125,1.125,0,0,0,0,3.375v2.25A1.125,1.125,0,0,0,1.125,6.75h29.25A1.125,1.125,0,0,0,31.5,5.625V3.375A1.125,1.125,0,0,0,30.375,2.25Z" transform="translate(0 -2.25)"/>
</svg>
