<svg xmlns="http://www.w3.org/2000/svg" width="33" height="33" viewBox="0 0 33 33">
  <path id="Icon_awesome-th-list" data-name="Icon awesome-th-list" d="M10.5,15.188v5.625A1.687,1.687,0,0,1,8.812,22.5H1.688A1.687,1.687,0,0,1,0,20.813V15.188A1.687,1.687,0,0,1,1.688,13.5H8.812A1.687,1.687,0,0,1,10.5,15.188ZM0,26.438v5.625A1.687,1.687,0,0,0,1.688,33.75H8.812A1.687,1.687,0,0,0,10.5,32.063V26.438A1.687,1.687,0,0,0,8.812,24.75H1.688A1.687,1.687,0,0,0,0,26.438ZM8.812,2.25H1.688A1.687,1.687,0,0,0,0,3.938V9.563A1.687,1.687,0,0,0,1.688,11.25H8.812A1.687,1.687,0,0,0,10.5,9.563V3.938A1.687,1.687,0,0,0,8.812,2.25Zm5.625,31.5H34.313A1.687,1.687,0,0,0,36,32.063V26.438a1.687,1.687,0,0,0-1.687-1.687H14.437a1.687,1.687,0,0,0-1.687,1.688v5.625A1.687,1.687,0,0,0,14.437,33.75ZM12.75,3.938V9.563a1.687,1.687,0,0,0,1.688,1.688H34.313A1.687,1.687,0,0,0,36,9.563V3.938A1.687,1.687,0,0,0,34.313,2.25H14.437A1.687,1.687,0,0,0,12.75,3.938ZM14.437,22.5H34.313A1.687,1.687,0,0,0,36,20.813V15.188A1.687,1.687,0,0,0,34.313,13.5H14.437a1.687,1.687,0,0,0-1.687,1.688v5.625A1.687,1.687,0,0,0,14.437,22.5Z" transform="translate(0 -2.25)"/>
</svg>
