<svg xmlns="http://www.w3.org/2000/svg" width="31.5" height="31.5" viewBox="0 0 31.5 31.5">
  <path id="Icon_awesome-align-right" data-name="Icon awesome-align-right" d="M1.125,15.75h29.25A1.125,1.125,0,0,0,31.5,14.625v-2.25a1.125,1.125,0,0,0-1.125-1.125H1.125A1.125,1.125,0,0,0,0,12.375v2.25A1.125,1.125,0,0,0,1.125,15.75Zm29.25,13.5H1.125A1.125,1.125,0,0,0,0,30.375v2.25A1.125,1.125,0,0,0,1.125,33.75h29.25A1.125,1.125,0,0,0,31.5,32.625v-2.25A1.125,1.125,0,0,0,30.375,29.25Zm.223-27H12.152a.9.9,0,0,0-.9.9v2.7a.9.9,0,0,0,.9.9H30.6a.9.9,0,0,0,.9-.9v-2.7a.9.9,0,0,0-.9-.9Zm0,18H12.152a.9.9,0,0,0-.9.9v2.7a.9.9,0,0,0,.9.9H30.6a.9.9,0,0,0,.9-.9v-2.7a.9.9,0,0,0-.9-.9Z" transform="translate(0 -2.25)"/>
</svg>
