<svg xmlns="http://www.w3.org/2000/svg" width="30" height="30" viewBox="0 0 30 30">
  <path id="Icon_awesome-info-circle" data-name="Icon awesome-info-circle" d="M15.469.469a15,15,0,1,0,15,15A15,15,0,0,0,15.469.469Zm0,6.653a2.54,2.54,0,1,1-2.54,2.54A2.54,2.54,0,0,1,15.469,7.122Zm3.387,15.363a.726.726,0,0,1-.726.726H12.807a.726.726,0,0,1-.726-.726V21.033a.726.726,0,0,1,.726-.726h.726V16.436h-.726a.726.726,0,0,1-.726-.726V14.259a.726.726,0,0,1,.726-.726h3.871a.726.726,0,0,1,.726.726v6.048h.726a.726.726,0,0,1,.726.726Z" transform="translate(-0.469 -0.469)" fill="#2FB0FF"/>
</svg>
