<svg xmlns="http://www.w3.org/2000/svg" width="53" height="58.524" viewBox="0 0 53 58.524">
  <path id="Icon_awesome-book-reader" data-name="Icon awesome-book-reader" d="M34.374,10.405C34.374,4.659,30.177,0,25,0s-9.375,4.659-9.375,10.405S19.822,20.811,25,20.811,34.374,16.152,34.374,10.405ZM22.811,26.132C17.017,22.2,7.633,21.114,2.91,20.816A2.83,2.83,0,0,0,0,23.752V47.9a2.855,2.855,0,0,0,2.587,2.932c4.264.248,12.889,1.158,18.851,4.491a1.365,1.365,0,0,0,2-1.287V27.375a1.483,1.483,0,0,0-.627-1.242Zm24.278-5.316c-4.722.3-14.107,1.38-19.9,5.316a1.513,1.513,0,0,0-.626,1.261V54.034a1.369,1.369,0,0,0,2.006,1.29c5.961-3.33,14.582-4.239,18.844-4.487A2.857,2.857,0,0,0,50,47.9V23.752A2.832,2.832,0,0,0,47.089,20.816Z" transform="translate(1.5 1.5)" fill="none" stroke="#6c63ff" stroke-width="3"/>
</svg>
