<svg xmlns="http://www.w3.org/2000/svg" width="50" height="50" viewBox="0 0 50 50">
  <path id="Icon_ionic-ios-settings" data-name="Icon ionic-ios-settings" d="M50.372,29.493a6.432,6.432,0,0,1,4.128-6,25.493,25.493,0,0,0-3.086-7.433,6.522,6.522,0,0,1-2.617.56,6.418,6.418,0,0,1-5.872-9.034A25.43,25.43,0,0,0,35.5,4.5,6.429,6.429,0,0,1,23.5,4.5a25.507,25.507,0,0,0-7.435,3.085,6.418,6.418,0,0,1-5.872,9.034,6.309,6.309,0,0,1-2.617-.56A26.056,26.056,0,0,0,4.5,23.505a6.43,6.43,0,0,1,.013,12A25.493,25.493,0,0,0,7.6,42.941a6.422,6.422,0,0,1,8.477,8.474A25.656,25.656,0,0,0,23.51,54.5a6.417,6.417,0,0,1,11.979,0,25.507,25.507,0,0,0,7.435-3.085A6.428,6.428,0,0,1,51.4,42.941a25.642,25.642,0,0,0,3.086-7.433A6.463,6.463,0,0,1,50.372,29.493Zm-20.755,10.4A10.414,10.414,0,1,1,40.034,29.48,10.412,10.412,0,0,1,29.617,39.894Z" transform="translate(-4.5 -4.5)" fill="#6c63ff"/>
</svg>
