<svg xmlns="http://www.w3.org/2000/svg" xmlns:xlink="http://www.w3.org/1999/xlink" width="36.002" height="35.997" viewBox="0 0 36.002 35.997">
  <defs>
    <linearGradient id="linear-gradient" x1="0.5" x2="0.5" y2="1" gradientUnits="objectBoundingBox">
      <stop offset="0" stop-color="#ff2600"/>
      <stop offset="1" stop-color="#ff416c"/>
    </linearGradient>
  </defs>
  <path id="Icon_simple-applemusic" data-name="Icon simple-applemusic" d="M36,9.186a13.845,13.845,0,0,0-.36-3.285,7.375,7.375,0,0,0-3.27-4.564A7.533,7.533,0,0,0,29.55.246,15.745,15.745,0,0,0,27.2.021c-.06,0-.125-.015-.186-.02H8.982C8.754.017,8.528.027,8.3.041a10.461,10.461,0,0,0-3.29.6,7.493,7.493,0,0,0-4.3,4.17A8.431,8.431,0,0,0,.168,6.924a15.914,15.914,0,0,0-.15,1.77c0,.048-.01.093-.015.139V27.168c.015.21.025.424.04.636a9.871,9.871,0,0,0,.746,3.559,7.471,7.471,0,0,0,4.851,4.2,9.859,9.859,0,0,0,1.939.342c.832.079,1.665.09,2.5.09H26.625a18.751,18.751,0,0,0,2.355-.15,8.007,8.007,0,0,0,3.444-1.215,7.569,7.569,0,0,0,2.82-3.312,8.312,8.312,0,0,0,.555-1.986A18.333,18.333,0,0,0,36,26.275q0-8.55,0-17.09Zm-9.634,5.985v8.568A4.041,4.041,0,0,1,26,25.548a3.177,3.177,0,0,1-2.082,1.71,6.922,6.922,0,0,1-1.6.26,2.806,2.806,0,0,1-1.358-5.337,6.4,6.4,0,0,1,1.527-.486c.567-.123,1.137-.229,1.7-.36a.927.927,0,0,0,.765-.774,1.356,1.356,0,0,0,.03-.289q0-4.084,0-8.165a1.087,1.087,0,0,0-.039-.278.431.431,0,0,0-.456-.351,5.427,5.427,0,0,0-.712.1q-1.71.338-3.42.684l-3.489.7-2.061.417c-.024,0-.048.015-.072.019a.676.676,0,0,0-.585.735c0,.063,0,.129,0,.195q0,5.854,0,11.708a4.6,4.6,0,0,1-.323,1.84,3.194,3.194,0,0,1-2.151,1.85,6.664,6.664,0,0,1-1.613.258,2.76,2.76,0,0,1-2.88-2.316A2.8,2.8,0,0,1,8.9,24.559a8.847,8.847,0,0,1,1.662-.465c.431-.09.863-.174,1.29-.265a1.044,1.044,0,0,0,.9-1.071v-.225q0-6.66,0-13.323a2.386,2.386,0,0,1,.063-.555,1.041,1.041,0,0,1,.819-.777c.382-.1.773-.168,1.161-.247,1.1-.225,2.2-.444,3.3-.666l3.405-.69c1-.2,2.01-.405,3.015-.6a9.106,9.106,0,0,1,1-.159.739.739,0,0,1,.831.723,3.083,3.083,0,0,1,.018.334q0,4.3,0,8.6Z" transform="translate(-0.003 -0.001)" fill="url(#linear-gradient)"/>
</svg>
