<svg xmlns="http://www.w3.org/2000/svg" xmlns:xlink="http://www.w3.org/1999/xlink" width="16.097" height="25" viewBox="0 0 16.097 25">
  <defs>
    <linearGradient id="linear-gradient" x1="0.082" y1="0.731" x2="0.082" y2="0.118" gradientUnits="objectBoundingBox">
      <stop offset="0" stop-color="#4e54c8"/>
      <stop offset="1" stop-color="#8f94fb"/>
    </linearGradient>
  </defs>
  <path id="Icon_ionic-ios-musical-note" data-name="Icon ionic-ios-musical-note" d="M25.132,3.387c-.32.054-8.045,1.449-8.331,1.5s-.552.216-.552.481h0V20.7a1.489,1.489,0,0,1-.164.7,1.793,1.793,0,0,1-1.1.764c-.225.066-.532.126-.893.2-1.643.325-4.391.878-4.391,3.115a2.891,2.891,0,0,0,2.386,2.832,5.8,5.8,0,0,0,.941.06,8.951,8.951,0,0,0,3.491-.794,3.162,3.162,0,0,0,1.643-2.874V10.9a.5.5,0,0,1,.436-.469l6.327-1.142a1,1,0,0,0,.873-.944v-4.5A.525.525,0,0,0,25.132,3.387Z" transform="translate(-9.703 -3.375)" fill="url(#linear-gradient)"/>
</svg>
