<svg xmlns="http://www.w3.org/2000/svg" width="50" height="68.176" viewBox="0 0 50 68.176">
  <path id="Icon_awesome-hourglass-start" data-name="Icon awesome-hourglass-start" d="M46.875,0H3.125A3.161,3.161,0,0,0,0,3.2V5.326a3.161,3.161,0,0,0,3.125,3.2c0,12.113,6.643,22.335,15.735,25.566C9.768,37.319,3.125,47.542,3.125,59.654A3.161,3.161,0,0,0,0,62.85V64.98a3.161,3.161,0,0,0,3.125,3.2h43.75A3.161,3.161,0,0,0,50,64.98V62.85a3.161,3.161,0,0,0-3.125-3.2c0-12.113-6.643-22.335-15.735-25.566,9.092-3.231,15.735-13.453,15.735-25.566A3.161,3.161,0,0,0,50,5.326V3.2A3.161,3.161,0,0,0,46.875,0ZM38.542,59.654H11.458C11.458,49.34,17.474,40.48,25,40.48S38.542,49.337,38.542,59.654Z" fill="#6c63ff"/>
</svg>
