<svg xmlns="http://www.w3.org/2000/svg" width="25" height="19.445" viewBox="0 0 25 19.445">
  <path id="Icon_awesome-book-open" data-name="Icon awesome-book-open" d="M23.534,2.252c-2.379.135-7.106.626-10.024,2.413a.667.667,0,0,0-.316.572V21.03a.687.687,0,0,0,1.01.586c3-1.511,7.345-1.924,9.492-2.036A1.354,1.354,0,0,0,25,18.248V3.585a1.361,1.361,0,0,0-1.466-1.332ZM11.49,4.665C8.572,2.878,3.845,2.387,1.466,2.252A1.361,1.361,0,0,0,0,3.585V18.248a1.353,1.353,0,0,0,1.3,1.331c2.148.113,6.493.526,9.5,2.038a.685.685,0,0,0,1.007-.584V5.229A.653.653,0,0,0,11.49,4.665Z" transform="translate(0 -2.25)" fill="#1f90ff"/>
</svg>
