<svg xmlns="http://www.w3.org/2000/svg" width="31.502" height="20.25" viewBox="0 0 31.502 20.25">
  <g id="Icon_ionic-ios-eye" data-name="Icon ionic-ios-eye" transform="translate(-2.252 -7.875)">
    <path id="Path_10" data-name="Path 10" d="M17.986,7.875c-5.653,0-10.111,3.558-15.441,9.373a1.112,1.112,0,0,0-.007,1.5c4.563,5.041,8.585,9.38,15.448,9.38,6.778,0,11.862-5.463,15.476-9.422a1.1,1.1,0,0,0,.035-1.455C29.813,12.783,24.715,7.875,17.986,7.875ZM18.3,24.321A6.328,6.328,0,1,1,24.321,18.3,6.331,6.331,0,0,1,18.3,24.321Z"/>
    <path id="Path_11" data-name="Path 11" d="M18,14.7a3.3,3.3,0,0,1,.218-1.188c-.07,0-.141-.007-.218-.007A4.5,4.5,0,1,0,22.5,18c0-.091-.007-.183-.007-.274a3.118,3.118,0,0,1-1.28.274A3.264,3.264,0,0,1,18,14.7Z"/>
  </g>
</svg>
