<svg xmlns="http://www.w3.org/2000/svg" width="31.5" height="31.5" viewBox="0 0 31.5 31.5">
  <path id="Icon_awesome-font" data-name="Icon awesome-font" d="M30.375,29.25H28.729L19.538,3.775a2.25,2.25,0,0,0-2.13-1.525H14.092a2.25,2.25,0,0,0-2.131,1.526L2.771,29.25H1.125A1.125,1.125,0,0,0,0,30.375v2.25A1.125,1.125,0,0,0,1.125,33.75h9a1.125,1.125,0,0,0,1.125-1.125v-2.25a1.125,1.125,0,0,0-1.125-1.125H8.748l1.638-4.5H21.113l1.638,4.5H21.375a1.125,1.125,0,0,0-1.125,1.125v2.25a1.125,1.125,0,0,0,1.125,1.125h9A1.125,1.125,0,0,0,31.5,32.625v-2.25A1.125,1.125,0,0,0,30.375,29.25ZM12.435,19.125l3.315-9.1,3.315,9.1Z" transform="translate(0 -2.25)"/>
</svg>
