<svg xmlns="http://www.w3.org/2000/svg" width="25" height="25" viewBox="0 0 25 25">
  <path id="Icon_open-sun" data-name="Icon open-sun" d="M12.5,0a1.547,1.547,0,0,0-1.562,1.563,1.562,1.562,0,1,0,3.125,0A1.547,1.547,0,0,0,12.5,0ZM4.688,3.125A1.563,1.563,0,1,0,6.25,4.688,1.547,1.547,0,0,0,4.688,3.125Zm15.625,0a1.563,1.563,0,1,0,1.563,1.563A1.547,1.547,0,0,0,20.313,3.125ZM12.5,6.25a6.25,6.25,0,1,0,6.25,6.25A6.268,6.268,0,0,0,12.5,6.25ZM1.563,10.938a1.562,1.562,0,1,0,0,3.125,1.562,1.562,0,1,0,0-3.125Zm21.875,0A1.562,1.562,0,1,0,25,12.5,1.547,1.547,0,0,0,23.438,10.938ZM4.688,18.75A1.563,1.563,0,1,0,6.25,20.313,1.547,1.547,0,0,0,4.688,18.75Zm15.625,0a1.563,1.563,0,1,0,1.563,1.563A1.547,1.547,0,0,0,20.313,18.75ZM12.5,21.875a1.563,1.563,0,1,0,1.562,1.563A1.547,1.547,0,0,0,12.5,21.875Z" fill="#ffe259"/>
</svg>
