<svg xmlns="http://www.w3.org/2000/svg" width="148.285" height="128.143" viewBox="0 0 148.285 128.143">
  <path id="Icon_simple-sublimetext" data-name="Icon simple-sublimetext" d="M74.142,121.609H132.98c3.695,0,6.759-2.095,6.759-4.634V105.106a9.544,9.544,0,0,1-6.759,2.521H15.317a9.708,9.708,0,0,1-6.765-2.5v11.832c0,2.552,3.027,4.634,6.765,4.634H74.142v.019Zm0,8.977h64.522c5.307,0,9.62-3.188,9.62-7.093a5.6,5.6,0,0,0-.1-.914l-9.917-105.1a6.739,6.739,0,0,0-4.294-5.227l7.513,89.008v15.712c0,3.516-3.8,6.389-8.533,6.389H15.323c-4.683,0-8.508-2.9-8.508-6.389V101.263l7.495-89.008a6.765,6.765,0,0,0-4.294,5.233L.093,122.548a3.869,3.869,0,0,0-.093.927c0,3.892,4.294,7.111,9.614,7.111ZM132.115,10.7l-.179-1.946a2.03,2.03,0,0,0-.025-.377l-.037-.432c-.377-3.114-2.935-5.5-6.685-5.5H23.077c-3.732,0-6.277,2.373-6.673,5.468l-.019.47-.019.371-.185,1.94-7.6,90.583c0,2.546,3.021,4.634,6.747,4.634H133c3.719,0,6.735-2.088,6.759-4.634L132.115,10.7ZM96.984,68.2c-1.643,4.313-5.425,7.39-9.546,9.268A35.84,35.84,0,0,1,73.03,80.392a63.641,63.641,0,0,1-15.551-1.668,42.89,42.89,0,0,1-7.668-2.342,5.816,5.816,0,0,1,.2-11.072,9.558,9.558,0,0,1,7.025.278,44.956,44.956,0,0,0,16.182,2.354c3.12-.093,8.588-1.761,7.711-6.592a7.323,7.323,0,0,0-2.132-3.584,9.948,9.948,0,0,0-3.8-1.977c-2.558-.7-5.19-1.223-7.785-1.786-5.227-1.149-8.014-2.014-12.647-4.825-4.084-2.434-4.961-4-5.592-7.661-.822-4.788,1.52-8.582,5.375-11.486,8.619-6.549,16.88-6.321,27.068-4.455,2.5.463,5.493.884,7.686,2.218a5.336,5.336,0,0,1,2.441,6.382c-.871,2.317-3.077,2.669-5.468,2.41-2.57-.272-3.621-.951-6.049-1.409-5.079-.927-6.951-1.705-11.838-.315-1.94.556-4.572,2.4-3.584,4.832.834,2.008,3.9,2.663,5.727,3.157,5.023,1.341,8.946,2.885,13.945,4.356A19.966,19.966,0,0,1,95.44,55.295a14.259,14.259,0,0,1,1.582,12.944L97,68.208l-.012-.012Z" transform="translate(0 -2.443)" fill="#00ff9f"/>
</svg>
